<svg width="25" height="24" viewBox="0 0 25 24" fill="none" xmlns="http://www.w3.org/2000/svg">
<path d="M21.084 14.15V18.4C21.084 19.494 20.297 20.436 19.212 20.58C17.125 20.857 14.996 21 12.834 21C10.672 21 8.54304 20.857 6.45604 20.58C5.37104 20.436 4.58404 19.494 4.58404 18.4V14.15M21.084 14.15C21.3215 13.9436 21.5115 13.6883 21.6409 13.4016C21.7704 13.1149 21.8363 12.8036 21.834 12.489V8.706C21.834 7.625 21.066 6.691 19.997 6.531C18.8643 6.36142 17.7259 6.23234 16.584 6.144M21.084 14.15C20.89 14.315 20.664 14.445 20.411 14.53C17.9673 15.3408 15.4088 15.7528 12.834 15.75C10.186 15.75 7.63904 15.321 5.25704 14.53C5.0103 14.4479 4.78177 14.3189 4.58404 14.15M4.58404 14.15C4.34658 13.9436 4.1566 13.6883 4.02714 13.4016C3.89768 13.1149 3.8318 12.8036 3.83404 12.489V8.706C3.83404 7.625 4.60204 6.691 5.67104 6.531C6.80374 6.36142 7.94213 6.23233 9.08404 6.144M16.584 6.144V5.25C16.584 4.65326 16.347 4.08097 15.925 3.65901C15.5031 3.23705 14.9308 3 14.334 3H11.334C10.7373 3 10.165 3.23705 9.74305 3.65901C9.32109 4.08097 9.08404 4.65326 9.08404 5.25V6.144M16.584 6.144C14.0878 5.95108 11.5803 5.95108 9.08404 6.144M12.834 12.75H12.842V12.758H12.834V12.75Z" stroke="#C5C5C5" stroke-width="1.5" stroke-linecap="round" stroke-linejoin="round"/>
</svg>
