<svg width="90" height="40" viewBox="0 0 90 40" fill="none" xmlns="http://www.w3.org/2000/svg">
<path d="M8.33329 29.9496C6.89421 29.9496 5.64756 29.683 4.59335 29.1496C3.55587 28.6163 2.6941 27.8963 2.00802 26.9896C1.32195 26.0652 0.811575 25.0252 0.476905 23.8696C0.158968 22.7141 0 21.523 0 20.2963C0 18.963 0.184069 17.683 0.552206 16.4563C0.920343 15.2119 1.45582 14.1007 2.15862 13.123C2.87816 12.1452 3.77341 11.3719 4.84435 10.803C5.9153 10.2341 7.15358 9.94963 8.55919 9.94963C9.14487 9.94963 9.78074 10.0296 10.4668 10.1896C11.1696 10.3319 11.839 10.5541 12.4748 10.8563C13.1107 11.1585 13.6294 11.5585 14.0311 12.0563L12.7258 13.603C12.4079 13.2119 12.0063 12.8919 11.521 12.643C11.0358 12.3763 10.5254 12.1719 9.98991 12.0296C9.47117 11.8874 8.97753 11.8163 8.50899 11.8163C7.53845 11.8163 6.68504 12.0563 5.94876 12.5363C5.21249 12.9985 4.59335 13.6296 4.09134 14.4296C3.58934 15.2296 3.20447 16.1274 2.93673 17.123C2.68573 18.1185 2.56023 19.1319 2.56023 20.163C2.56023 21.763 2.80286 23.1496 3.28814 24.323C3.77341 25.4785 4.45948 26.3763 5.34636 27.0163C6.23323 27.6385 7.27908 27.9496 8.48389 27.9496C9.1867 27.9496 9.94807 27.843 10.768 27.6296C11.588 27.4163 12.433 27.0785 13.3031 26.6163L14.0813 28.1363C13.7131 28.4207 13.2864 28.6785 12.8011 28.9096C12.3326 29.123 11.8306 29.3096 11.2951 29.4696C10.7764 29.6296 10.2576 29.7452 9.7389 29.8163C9.2369 29.9052 8.76836 29.9496 8.33329 29.9496Z" fill="white"/>
<path d="M16.3409 10.2163H19.0266V29.6296H16.6923V11.9763C16.6923 11.9585 16.6588 11.8163 16.5919 11.5496C16.5417 11.283 16.4915 11.0074 16.4413 10.723C16.3911 10.4385 16.3576 10.2696 16.3409 10.2163Z" fill="white"/>
<path d="M26.1696 10.2163L34.1515 23.2563C34.3021 23.5052 34.461 23.7718 34.6284 24.0563C34.7957 24.323 34.963 24.5807 35.1304 24.8296C35.1136 24.5274 35.0969 24.2252 35.0802 23.923C35.0634 23.603 35.0551 23.3007 35.0551 23.0163V10.2163H36.9627V29.763H35.4818L26.1696 14.6163C26.0357 14.3852 25.8851 14.1452 25.7178 13.8963C25.5672 13.6296 25.4082 13.3807 25.2409 13.1496C25.2743 13.4341 25.2911 13.7274 25.2911 14.0296C25.3078 14.3141 25.3162 14.5985 25.3162 14.883V29.6296H23.4086V11.9763L23.0571 10.2163H26.1696Z" fill="white"/>
<path d="M40.9503 10.2163H51.9191V12.0563H43.636V18.7496H50.0617V20.563H43.636V27.7896H51.9191V29.6296H41.3017V11.9763L40.9503 10.2163Z" fill="white"/>
<path d="M67.0486 25.1852V38.5185H65.537V25.1852H67.0486ZM66.6891 33.4664L66.06 33.4404C66.0654 32.798 66.1553 32.2049 66.3296 31.6609C66.5039 31.1111 66.749 30.6337 67.065 30.2286C67.3809 29.8235 67.7567 29.511 68.1925 29.2911C68.6337 29.0654 69.1212 28.9525 69.6551 28.9525C70.0908 28.9525 70.483 29.0162 70.8316 29.1435C71.1803 29.265 71.4771 29.4618 71.7222 29.7338C71.9728 30.0058 72.1635 30.3588 72.2942 30.7928C72.4249 31.2211 72.4903 31.7448 72.4903 32.364V38.5185H70.9705V32.3466C70.9705 31.8547 70.9025 31.4612 70.7663 31.1661C70.6301 30.8652 70.4313 30.6481 70.1698 30.515C69.9083 30.3762 69.587 30.3067 69.2057 30.3067C68.8298 30.3067 68.4867 30.3906 68.1762 30.5584C67.8711 30.7263 67.6069 30.9578 67.3836 31.2529C67.1657 31.548 66.9941 31.8866 66.8689 32.2685C66.749 32.6447 66.6891 33.044 66.6891 33.4664Z" fill="white"/>
<path d="M76.3959 29.1262V38.5185H74.8761V29.1262H76.3959ZM74.7617 26.6348C74.7617 26.3744 74.8353 26.1545 74.9823 25.9751C75.1348 25.7957 75.3582 25.706 75.6523 25.706C75.941 25.706 76.1616 25.7957 76.3141 25.9751C76.4721 26.1545 76.5511 26.3744 76.5511 26.6348C76.5511 26.8837 76.4721 27.0978 76.3141 27.2772C76.1616 27.4508 75.941 27.5376 75.6523 27.5376C75.3582 27.5376 75.1348 27.4508 74.9823 27.2772C74.8353 27.0978 74.7617 26.8837 74.7617 26.6348Z" fill="white"/>
<path d="M80.4648 25.1852V38.5185H78.9451V25.1852H80.4648Z" fill="white"/>
<path d="M86.5602 38.6921C85.9446 38.6921 85.3863 38.5822 84.8852 38.3623C84.3895 38.1366 83.9619 37.8212 83.6024 37.4161C83.2483 37.011 82.976 36.5307 82.7853 35.9751C82.5947 35.4196 82.4993 34.8119 82.4993 34.1522V33.7876C82.4993 33.0237 82.6056 32.3438 82.818 31.7477C83.0304 31.1458 83.3191 30.6366 83.6841 30.2199C84.049 29.8032 84.463 29.4878 84.926 29.2737C85.389 29.0596 85.8684 28.9525 86.3641 28.9525C86.9959 28.9525 87.5406 29.0683 87.9982 29.2998C88.4612 29.5312 88.8398 29.8553 89.1339 30.272C89.4281 30.6829 89.6459 31.169 89.7876 31.7303C89.9292 32.2859 90 32.8935 90 33.5532V34.2737H83.3981V32.963H88.4884V32.8414C88.4666 32.4248 88.3849 32.0197 88.2433 31.6262C88.1071 31.2326 87.8893 30.9086 87.5897 30.6539C87.2901 30.3993 86.8815 30.272 86.3641 30.272C86.0209 30.272 85.705 30.3501 85.4163 30.5064C85.1276 30.6568 84.8797 30.8825 84.6727 31.1834C84.4657 31.4844 84.3051 31.8519 84.1907 32.2859C84.0763 32.7199 84.0191 33.2205 84.0191 33.7876V34.1522C84.0191 34.5978 84.0763 35.0174 84.1907 35.4109C84.3105 35.7986 84.4821 36.14 84.7054 36.4352C84.9342 36.7303 85.2093 36.9618 85.5307 37.1296C85.8575 37.2975 86.2279 37.3814 86.6419 37.3814C87.1757 37.3814 87.6278 37.2656 87.9982 37.0341C88.3686 36.8027 88.6927 36.4931 88.9705 36.1053L89.8856 36.8779C89.695 37.1846 89.4526 37.4769 89.1584 37.7546C88.8643 38.0324 88.5021 38.2581 88.0717 38.4317C87.6469 38.6053 87.143 38.6921 86.5602 38.6921Z" fill="white"/>
<path d="M68.5684 0C54.8636 0 54.6238 1.29481 54.6238 11.4074C54.6238 21.52 54.8636 22.8148 68.5684 22.8148C82.2731 22.8148 82.513 21.52 82.513 11.4074C82.513 1.29481 82.2731 0 68.5684 0ZM73.0376 11.9022L66.7765 15.0074C66.2285 15.277 65.7794 14.9748 65.7794 14.3319V8.48296C65.7794 7.84148 66.2285 7.53778 66.7765 7.80741L73.0376 10.9126C73.5856 11.1852 73.5856 11.6296 73.0376 11.9022Z" fill="white"/>
<path d="M54.6238 13.3333C54.6238 10.8787 56.4967 8.88889 58.8071 8.88889C61.1176 8.88889 62.9905 10.8787 62.9905 13.3333V35.5556C62.9905 38.0102 61.1176 40 58.8071 40C56.4967 40 54.6238 38.0102 54.6238 35.5556V13.3333Z" fill="white"/>
</svg>
