<svg width="25" height="24" viewBox="0 0 25 24" fill="none" xmlns="http://www.w3.org/2000/svg">
<g id="Message - Outline">
<path id="Vector" d="M22.25 6.75V17.25C22.25 17.8467 22.0129 18.419 21.591 18.841C21.169 19.2629 20.5967 19.5 20 19.5H5C4.40326 19.5 3.83097 19.2629 3.40901 18.841C2.98705 18.419 2.75 17.8467 2.75 17.25V6.75M22.25 6.75C22.25 6.15326 22.0129 5.58097 21.591 5.15901C21.169 4.73705 20.5967 4.5 20 4.5H5C4.40326 4.5 3.83097 4.73705 3.40901 5.15901C2.98705 5.58097 2.75 6.15326 2.75 6.75M22.25 6.75V6.993C22.25 7.37715 22.1517 7.75491 21.9644 8.0903C21.7771 8.42569 21.5071 8.70754 21.18 8.909L13.68 13.524C13.3252 13.7425 12.9167 13.8582 12.5 13.8582C12.0833 13.8582 11.6748 13.7425 11.32 13.524L3.82 8.91C3.49292 8.70854 3.22287 8.42669 3.03557 8.0913C2.84827 7.75591 2.74996 7.37815 2.75 6.994V6.75" stroke="#C5C5C5" stroke-width="1.5" stroke-linecap="round" stroke-linejoin="round"/>
</g>
</svg>
