<svg width="25" height="24" viewBox="0 0 25 24" fill="none" xmlns="http://www.w3.org/2000/svg">
<g id="More - Outline">
<path id="Vector" d="M4.83398 12.5H21.334M4.83398 16.25H21.334M4.83398 20H21.334M6.70898 5H19.459C19.9563 5 20.4332 5.19754 20.7848 5.54917C21.1364 5.90081 21.334 6.37772 21.334 6.875C21.334 7.37228 21.1364 7.84919 20.7848 8.20083C20.4332 8.55246 19.9563 8.75 19.459 8.75H6.70898C6.2117 8.75 5.73479 8.55246 5.38316 8.20083C5.03153 7.84919 4.83398 7.37228 4.83398 6.875C4.83398 6.37772 5.03153 5.90081 5.38316 5.54917C5.73479 5.19754 6.2117 5 6.70898 5Z" stroke="#C5C5C5" stroke-width="1.5" stroke-linecap="round" stroke-linejoin="round"/>
</g>
</svg>
