<?xml version="1.0" encoding="utf-8"?>
<!-- Generator: Adobe Illustrator 23.0.4, SVG Export Plug-In . SVG Version: 6.00 Build 0)  -->
<svg version="1.1" id="Layer_1" xmlns="http://www.w3.org/2000/svg" xmlns:xlink="http://www.w3.org/1999/xlink" x="0px" y="0px"
	 viewBox="0 0 32 32" style="enable-background:new 0 0 32 32;" xml:space="preserve">
<style type="text/css">
	.st0{fill:#008AD0;}
	.st1{fill:#333333;}
</style>
<g>
	<path class="st0" d="M16.014,32c-0.468,0-0.939-0.02-1.413-0.06C6.808,31.277,0.545,24.886,0.035,17.072
		c-0.301-4.61,1.392-9.122,4.645-12.378c3.252-3.256,7.763-4.954,12.371-4.66c7.685,0.491,14.074,6.625,14.862,14.269
		c0.254,2.461-0.038,4.868-0.867,7.154c-0.188,0.52-0.763,0.788-1.281,0.599c-0.52-0.188-0.788-0.762-0.599-1.281
		c0.725-2,0.98-4.109,0.758-6.267C29.233,7.824,23.644,2.459,16.922,2.03C12.892,1.771,8.94,3.258,6.094,6.107
		c-2.846,2.85-4.327,6.798-4.063,10.835c0.446,6.834,5.923,12.426,12.74,13.005c3.156,0.271,6.217-0.491,8.844-2.197
		c0.327-0.212,0.406-0.531,0.423-0.702c0.032-0.31-0.076-0.612-0.295-0.83l-0.193-0.193c-0.392-0.39-0.394-1.023-0.004-1.414
		c0.39-0.392,1.023-0.393,1.414-0.004l0.193,0.192c0.65,0.646,0.969,1.541,0.874,2.454c-0.093,0.895-0.575,1.687-1.323,2.173
		C22.095,31.122,19.115,32,16.014,32z"/>
</g>
<g>
	<path class="st1" d="M19.232,27.016c-2.812,0-5.045-1.344-8.475-4.773c-4.316-4.316-5.329-6.739-4.516-10.803
		c0.794-3.969,3.936-5.581,4.069-5.648c0.386-0.192,0.851-0.117,1.154,0.188l4.95,4.95c0.391,0.391,0.391,1.023,0,1.414
		l-2.566,2.566c0.117,0.301,0.514,1.038,1.859,2.383s2.083,1.743,2.383,1.859l2.566-2.566c0.391-0.391,1.023-0.391,1.414,0
		l4.95,4.95c0.304,0.304,0.38,0.769,0.188,1.154c-0.067,0.133-1.679,3.275-5.648,4.069C20.725,26.926,19.959,27.016,19.232,27.016z
		 M10.619,7.963c-0.75,0.566-2.001,1.789-2.417,3.87c-0.618,3.091-0.111,4.915,3.969,8.996c4.081,4.082,5.905,4.587,8.996,3.969
		c2.08-0.416,3.302-1.665,3.87-2.417l-3.673-3.673l-2.121,2.121c-0.144,0.144-0.697,0.585-1.73,0.242
		c-0.865-0.288-1.918-1.061-3.22-2.363c-1.302-1.302-2.075-2.355-2.363-3.22c-0.345-1.036,0.098-1.586,0.242-1.73l2.121-2.121
		L10.619,7.963z M18.253,19.2h0.01H18.253z"/>
</g>
</svg>
