<svg width="25" height="24" viewBox="0 0 25 24" fill="none" xmlns="http://www.w3.org/2000/svg">
<path d="M16.25 6C16.25 6.99456 15.8549 7.94839 15.1516 8.65165C14.4484 9.35491 13.4945 9.75 12.5 9.75C11.5054 9.75 10.5516 9.35491 9.84833 8.65165C9.14506 7.94839 8.74998 6.99456 8.74998 6C8.74998 5.00544 9.14506 4.05161 9.84833 3.34835C10.5516 2.64509 11.5054 2.25 12.5 2.25C13.4945 2.25 14.4484 2.64509 15.1516 3.34835C15.8549 4.05161 16.25 5.00544 16.25 6ZM5.00098 20.118C5.03311 18.1504 5.83731 16.2742 7.24015 14.894C8.64299 13.5139 10.5321 12.7405 12.5 12.7405C14.4679 12.7405 16.357 13.5139 17.7598 14.894C19.1626 16.2742 19.9668 18.1504 19.999 20.118C17.6464 21.1968 15.0881 21.7535 12.5 21.75C9.82398 21.75 7.28398 21.166 5.00098 20.118Z" stroke="#C5C5C5" stroke-width="1.5" stroke-linecap="round" stroke-linejoin="round"/>
</svg>
