<svg xmlns="http://www.w3.org/2000/svg" version="1.1" xmlns:xlink="http://www.w3.org/1999/xlink" xmlns:svgjs="http://svgjs.dev/svgjs" width="1000" height="623" viewBox="0 0 1000 623"><g transform="matrix(1,0,0,1,-0.6060606060606233,0.2522267206477409)"><svg viewBox="0 0 396 247" data-background-color="#97978d" preserveAspectRatio="xMidYMid meet" height="623" width="1000" xmlns="http://www.w3.org/2000/svg" xmlns:xlink="http://www.w3.org/1999/xlink"><g id="tight-bounds" transform="matrix(1,0,0,1,0.2400000000000091,-0.09999999999999432)"><svg viewBox="0 0 395.52 247.2" height="247.2" width="395.52"><g><svg></svg></g><g><svg viewBox="0 0 395.52 247.2" height="247.2" width="395.52"><g transform="matrix(1,0,0,1,75.54432000000001,56.5394003697548)"><svg viewBox="0 0 244.43135999999996 134.12119926049039" height="134.12119926049039" width="244.43135999999996"><g><svg viewBox="0 0 244.43135999999996 134.12119926049039" height="134.12119926049039" width="244.43135999999996"><g><svg viewBox="0 0 426.2947547911341 233.91091777684989" height="134.12119926049039" width="244.43135999999996"><g transform="matrix(1,0,0,1,184.97683027904026,0)"><svg viewBox="0 0 241.31792451209384 233.91091777684989" height="233.91091777684989" width="241.31792451209384"><g id="textblocktransform"><svg viewBox="0 0 241.31792451209384 233.91091777684989" height="233.91091777684989" width="241.31792451209384" id="textblock"><g><svg viewBox="0 0 241.31792451209384 151.825483872" height="151.825483872" width="241.31792451209384"><g transform="matrix(1,0,0,1,0,0)"><svg width="241.31792451209384" viewBox="0.6000000238418579 -34.099998474121094 54.20000076293945 34.099998474121094" height="151.825483872" data-palette-color="#ffffff"><path d="M28.65 0L25.15 0 21.65-9.55 7.5-9.55 4.35 0 0.6 0 12.7-34.1 16.2-34.1 28.65 0ZM14.4-29.2L8.65-12.65 20.5-12.65 14.4-29.2ZM44.4-17.2L54.8 0 50.6 0 42-14.2 33.95 0 29.75 0 39.6-16.85 29.5-34.1 33.55-34.1 42.05-19.55 50.75-34.1 54.65-34.1 44.4-17.2Z" opacity="1" transform="matrix(1,0,0,1,0,0)" fill="#ffffff" class="wordmark-text-0" data-fill-palette-color="primary" id="text-0"></path></svg></g></svg></g><g transform="matrix(1,0,0,1,0,187.66783680256628)"><svg viewBox="0 0 241.31792451209384 46.24308097428361" height="46.24308097428361" width="241.31792451209384"><g transform="matrix(1,0,0,1,0,0)"><svg width="241.31792451209384" viewBox="1.7000000476837158 -38.150001525878906 200.63999938964844 38.45000076293945" height="46.24308097428361" data-palette-color="#ffffff"><path d="M15.45 0L11.15 0 1.7-36.8 5.8-36.8 13.7-5.45 22.8-36.8 26.8-36.8 35.85-5.45 43.75-36.8 47.85-36.8 38.4 0 34.1 0 24.8-31.25 15.45 0ZM61.55 0.3L61.55 0.3Q57.35 0.3 54.92-0.95 52.5-2.2 51.45-5.2 50.4-8.2 50.4-13.4L50.4-13.4Q50.4-18.7 51.47-21.68 52.55-24.65 55-25.85 57.45-27.05 61.6-27.05L61.6-27.05Q65.15-27.05 67.37-26.25 69.6-25.45 70.67-23.53 71.75-21.6 71.75-18.2L71.75-18.2Q71.75-15.85 70.82-14.43 69.9-13 68.17-12.38 66.45-11.75 64.1-11.75L64.1-11.75 54.35-11.75Q54.4-8.5 55.05-6.53 55.7-4.55 57.42-3.68 59.15-2.8 62.5-2.8L62.5-2.8 71.1-2.8 71.1-0.4Q68.8-0.1 66.6 0.1 64.4 0.3 61.55 0.3ZM54.3-14.35L54.3-14.35 63.8-14.35Q66.05-14.35 67.12-15.18 68.2-16 68.2-18.15L68.2-18.15Q68.2-20.45 67.52-21.73 66.85-23 65.42-23.53 64-24.05 61.6-24.05L61.6-24.05Q58.8-24.05 57.2-23.23 55.6-22.4 54.95-20.3 54.3-18.2 54.3-14.35ZM91.25 0.3L91.25 0.3Q89.35 0.3 87.72-0.18 86.1-0.65 84.75-1.33 83.4-2 82.35-2.7L82.35-2.7 81.6 0 78.4 0 78.4-38.15 82.35-38.15 82.35-24.25Q84.25-25.35 86.65-26.2 89.05-27.05 91.1-27.05L91.1-27.05Q94.3-27.05 96.4-25.7 98.5-24.35 99.57-21.3 100.65-18.25 100.65-13.15L100.65-13.15Q100.65-9 99.7-5.98 98.75-2.95 96.67-1.33 94.6 0.3 91.25 0.3ZM90-3L90-3Q92.2-3 93.67-4.13 95.15-5.25 95.92-7.55 96.7-9.85 96.7-13.3L96.7-13.3Q96.7-17.7 95.82-19.93 94.95-22.15 93.45-22.95 91.95-23.75 90-23.75L90-23.75Q87.75-23.75 85.97-23.13 84.2-22.5 82.35-21.5L82.35-21.5 82.35-5.15Q83.9-4.4 85.77-3.7 87.65-3 90-3ZM135.39 0L120.84 0 120.84-36.8 135.39-36.8Q138.74-36.8 141.04-35.58 143.34-34.35 144.77-32 146.19-29.65 146.84-26.23 147.49-22.8 147.49-18.4L147.49-18.4Q147.49-12.6 146.14-8.5 144.79-4.4 142.09-2.2 139.39 0 135.39 0L135.39 0ZM124.84-33.2L124.84-3.55 135.09-3.55Q138.04-3.55 139.89-5.38 141.74-7.2 142.64-10.53 143.54-13.85 143.54-18.4L143.54-18.4Q143.54-22.5 143.04-25.33 142.54-28.15 141.52-29.9 140.49-31.65 138.89-32.43 137.29-33.2 135.09-33.2L135.09-33.2 124.84-33.2ZM163.94 0.3L163.94 0.3Q159.74 0.3 157.31-0.95 154.89-2.2 153.84-5.2 152.79-8.2 152.79-13.4L152.79-13.4Q152.79-18.7 153.86-21.68 154.94-24.65 157.39-25.85 159.84-27.05 163.99-27.05L163.99-27.05Q167.54-27.05 169.76-26.25 171.99-25.45 173.06-23.53 174.14-21.6 174.14-18.2L174.14-18.2Q174.14-15.85 173.21-14.43 172.29-13 170.56-12.38 168.84-11.75 166.49-11.75L166.49-11.75 156.74-11.75Q156.79-8.5 157.44-6.53 158.09-4.55 159.81-3.68 161.54-2.8 164.89-2.8L164.89-2.8 173.49-2.8 173.49-0.4Q171.19-0.1 168.99 0.1 166.79 0.3 163.94 0.3ZM156.69-14.35L156.69-14.35 166.19-14.35Q168.44-14.35 169.51-15.18 170.59-16 170.59-18.15L170.59-18.15Q170.59-20.45 169.91-21.73 169.24-23 167.81-23.53 166.39-24.05 163.99-24.05L163.99-24.05Q161.19-24.05 159.59-23.23 157.99-22.4 157.34-20.3 156.69-18.2 156.69-14.35ZM191.99 0L187.49 0 177.44-26.7 181.49-26.7 189.79-3.7 198.34-26.7 202.34-26.7 191.99 0Z" opacity="1" transform="matrix(1,0,0,1,0,0)" fill="#ffffff" class="slogan-text-1" data-fill-palette-color="secondary" id="text-1"></path></svg></g></svg></g></svg></g></svg></g><g transform="matrix(1,0,0,1,0,42.38822021418795)"><svg viewBox="0 0 149.13447734847398 149.13447734847398" height="149.13447734847398" width="149.13447734847398"><g><svg xmlns="http://www.w3.org/2000/svg" xmlns:xlink="http://www.w3.org/1999/xlink" version="1.1" x="0" y="0" viewBox="5 5 90 90" enable-background="new 0 0 100 100" xml:space="preserve" height="149.13447734847398" width="149.13447734847398" class="icon-icon-0" data-fill-palette-color="accent" id="icon-0"><path d="M50 5C25.2 5 5 25.2 5 50c0 24.8 20.2 45 45 45 24.8 0 45-20.2 45-45C95 25.2 74.8 5 50 5L50 5zM72.3 45.5c-0.4-11-2.6-20.5-6.2-27.6 10.5 5.3 18 15.5 19.5 27.6H72.3zM33.8 17.9C30.3 25 28 34.5 27.6 45.5H14.3C15.9 33.4 23.4 23.2 33.8 17.9L33.8 17.9zM27.7 54.5c0.6 11.3 3.2 21.1 7.3 28.1-11.1-5-19-15.6-20.7-28.1H27.7zM50 84.5c-5.1 0-12.2-11.3-13.3-30h26.6C62.1 73.3 55.1 84.5 50 84.5L50 84.5zM36.6 45.5C37.4 25.9 44.7 14 50 14c5.3 0 12.5 11.9 13.4 31.5H36.6zM65 82.6c4-7 6.7-16.8 7.2-28.1h13.4C84 67 76 77.6 65 82.6z" fill="#ffffff" data-fill-palette-color="accent"></path></svg></g></svg></g></svg></g></svg></g></svg></g><path d="M250.151 50.539L250.151 0 2.951 0 2.951 247.2 250.151 247.2 250.151 196.661 242.3 196.661 242.3 239.349 10.801 239.349 10.801 7.851 242.3 7.851 242.3 50.539Z" fill="#ffffff" stroke="transparent" data-fill-palette-color="primary"></path></svg></g><defs></defs></svg><rect width="395.52" height="247.2" fill="none" stroke="none" visibility="hidden"></rect></g></svg></g></svg>